<?xml version="1.0" encoding="UTF-8" standalone="no"?>
<svg
   version="1.1"
   id="svg1"
   width="258.66666"
   height="258.66666"
   viewBox="0 0 258.66666 258.66666"
   xmlns="http://www.w3.org/2000/svg">

  <g id="g1">
    <path
       id="path2"
       d="m 1711.15,1085.98 h 56.43 c -6.25,-4.84 -10,-10.78 -10,-18.91 v -194.3 c 0,-8.133 3.9,-13.915 10,-18.762 h -56.43 c 6.1,4.847 9.85,10.785 9.85,18.762 v 194.3 c 0,8.13 -3.6,14.07 -9.85,18.91"
       style="fill:#231f20;fill-opacity:1;fill-rule:evenodd;stroke:none"
       transform="matrix(0.13333333,0,0,-0.13333333,0,258.66667)" />
    <path
       id="path3"
       d="m 403.246,1002.51 c -9.223,19.85 -19.387,39.39 -36.422,53.62 -18.133,15.32 -41.113,24.54 -64.871,24.54 -63.156,0 -91.449,-57.06 -91.449,-113.174 0,-54.242 27.043,-109.109 88.008,-109.109 24.855,0 49.086,10.785 64.406,30.324 v 43.769 c 0,11.883 -3.91,19.54 -13.137,26.575 h 64.563 c -6.879,-7.817 -11.098,-15.789 -11.098,-26.575 v -43.769 c -29.543,-27.512 -66.277,-44.395 -107.078,-44.395 -72.063,0 -130.992,52.993 -130.992,126.774 0,73.31 58.148,123.49 129.273,123.49 44.239,0 80.031,-16.26 108.797,-48.93 v -43.14"
       style="fill:#231f20;fill-opacity:1;fill-rule:evenodd;stroke:none"
       transform="matrix(0.13333333,0,0,-0.13333333,0,258.66667)" />
    <path
       id="path4"
       d="m 561.441,1085.98 h 60.805 c -8.285,-6.09 -11.101,-12.97 -11.101,-23.13 V 921.07 c 0,-38.922 45.648,-57.996 79.097,-57.996 32.828,0 75.66,19.227 75.66,57.211 v 142.565 c 0,9.54 -2.347,16.1 -8.754,23.13 h 33.137 c -6.719,-6.87 -9.219,-13.75 -9.219,-23.13 V 920.285 c 0,-51.269 -60.496,-70.965 -102.39,-70.965 -43.145,0 -106.137,19.067 -106.137,71.75 v 141.78 c 0,9.69 -3.91,16.88 -11.098,23.13"
       style="fill:#231f20;fill-opacity:1;fill-rule:evenodd;stroke:none"
       transform="matrix(0.13333333,0,0,-0.13333333,0,258.66667)" />
    <path
       id="path5"
       d="m 1170.45,1001.73 c -8.13,20.48 -17.66,38.45 -34.39,53.3 -17.97,15.95 -39.86,25.95 -64.09,25.95 -62.52,0 -94.572,-54.71 -94.572,-111.453 0,-57.058 33.302,-110.988 95.042,-110.988 45.96,0 78.78,32.363 98.01,71.285 v -42.207 c -28.61,-28.293 -65.5,-42.676 -105.82,-42.676 -74.724,0 -130.689,48.305 -130.689,125.372 0,74.867 53.778,124.107 127.089,124.107 40.64,0 80.03,-14.06 109.42,-42.04 v -50.65"
       style="fill:#231f20;fill-opacity:1;fill-rule:evenodd;stroke:none"
       transform="matrix(0.13333333,0,0,-0.13333333,0,258.66667)" />
    <path
       id="path6"
       d="m 1562.49,1001.73 c -8.12,20.48 -17.66,38.45 -34.38,53.3 -17.98,15.95 -39.86,25.95 -64.09,25.95 -62.54,0 -94.42,-54.71 -94.42,-111.453 0,-57.058 33.14,-110.988 94.88,-110.988 45.96,0 78.95,32.363 98.01,71.285 v -42.207 c -28.6,-28.293 -65.34,-42.676 -105.82,-42.676 -74.72,0 -130.68,48.305 -130.68,125.372 0,74.867 53.77,124.107 127.08,124.107 40.64,0 80.04,-14.06 109.42,-42.04 v -50.65"
       style="fill:#231f20;fill-opacity:1;fill-rule:evenodd;stroke:none"
       transform="matrix(0.13333333,0,0,-0.13333333,0,258.66667)" />
  </g>
</svg>